<svg id="visual" viewBox="0 0 960 540" width="960" height="540" xmlns="http://www.w3.org/2000/svg" xmlns:xlink="http://www.w3.org/1999/xlink" version="1.1"><rect x="0" y="0" width="960" height="540" fill="#dddddd"></rect><defs><linearGradient id="grad1_0" x1="43.8%" y1="0%" x2="100%" y2="100%"><stop offset="14.444444444444446%" stop-color="#ffffff" stop-opacity="1"></stop><stop offset="85.55555555555554%" stop-color="#ffffff" stop-opacity="1"></stop></linearGradient></defs><defs><linearGradient id="grad1_1" x1="43.8%" y1="0%" x2="100%" y2="100%"><stop offset="14.444444444444446%" stop-color="#ffffff" stop-opacity="1"></stop><stop offset="85.55555555555554%" stop-color="#fafafa" stop-opacity="1"></stop></linearGradient></defs><defs><linearGradient id="grad1_2" x1="43.8%" y1="0%" x2="100%" y2="100%"><stop offset="14.444444444444446%" stop-color="#f5f5f5" stop-opacity="1"></stop><stop offset="85.55555555555554%" stop-color="#fafafa" stop-opacity="1"></stop></linearGradient></defs><defs><linearGradient id="grad1_3" x1="43.8%" y1="0%" x2="100%" y2="100%"><stop offset="14.444444444444446%" stop-color="#f5f5f5" stop-opacity="1"></stop><stop offset="85.55555555555554%" stop-color="#f0f0f0" stop-opacity="1"></stop></linearGradient></defs><defs><linearGradient id="grad1_4" x1="43.8%" y1="0%" x2="100%" y2="100%"><stop offset="14.444444444444446%" stop-color="#ebebeb" stop-opacity="1"></stop><stop offset="85.55555555555554%" stop-color="#f0f0f0" stop-opacity="1"></stop></linearGradient></defs><defs><linearGradient id="grad1_5" x1="43.8%" y1="0%" x2="100%" y2="100%"><stop offset="14.444444444444446%" stop-color="#ebebeb" stop-opacity="1"></stop><stop offset="85.55555555555554%" stop-color="#e7e7e7" stop-opacity="1"></stop></linearGradient></defs><defs><linearGradient id="grad1_6" x1="43.8%" y1="0%" x2="100%" y2="100%"><stop offset="14.444444444444446%" stop-color="#e2e2e2" stop-opacity="1"></stop><stop offset="85.55555555555554%" stop-color="#e7e7e7" stop-opacity="1"></stop></linearGradient></defs><defs><linearGradient id="grad1_7" x1="43.8%" y1="0%" x2="100%" y2="100%"><stop offset="14.444444444444446%" stop-color="#e2e2e2" stop-opacity="1"></stop><stop offset="85.55555555555554%" stop-color="#dddddd" stop-opacity="1"></stop></linearGradient></defs><defs><linearGradient id="grad2_0" x1="0%" y1="0%" x2="56.3%" y2="100%"><stop offset="14.444444444444446%" stop-color="#ffffff" stop-opacity="1"></stop><stop offset="85.55555555555554%" stop-color="#ffffff" stop-opacity="1"></stop></linearGradient></defs><defs><linearGradient id="grad2_1" x1="0%" y1="0%" x2="56.3%" y2="100%"><stop offset="14.444444444444446%" stop-color="#fafafa" stop-opacity="1"></stop><stop offset="85.55555555555554%" stop-color="#ffffff" stop-opacity="1"></stop></linearGradient></defs><defs><linearGradient id="grad2_2" x1="0%" y1="0%" x2="56.3%" y2="100%"><stop offset="14.444444444444446%" stop-color="#fafafa" stop-opacity="1"></stop><stop offset="85.55555555555554%" stop-color="#f5f5f5" stop-opacity="1"></stop></linearGradient></defs><defs><linearGradient id="grad2_3" x1="0%" y1="0%" x2="56.3%" y2="100%"><stop offset="14.444444444444446%" stop-color="#f0f0f0" stop-opacity="1"></stop><stop offset="85.55555555555554%" stop-color="#f5f5f5" stop-opacity="1"></stop></linearGradient></defs><defs><linearGradient id="grad2_4" x1="0%" y1="0%" x2="56.3%" y2="100%"><stop offset="14.444444444444446%" stop-color="#f0f0f0" stop-opacity="1"></stop><stop offset="85.55555555555554%" stop-color="#ebebeb" stop-opacity="1"></stop></linearGradient></defs><defs><linearGradient id="grad2_5" x1="0%" y1="0%" x2="56.3%" y2="100%"><stop offset="14.444444444444446%" stop-color="#e7e7e7" stop-opacity="1"></stop><stop offset="85.55555555555554%" stop-color="#ebebeb" stop-opacity="1"></stop></linearGradient></defs><defs><linearGradient id="grad2_6" x1="0%" y1="0%" x2="56.3%" y2="100%"><stop offset="14.444444444444446%" stop-color="#e7e7e7" stop-opacity="1"></stop><stop offset="85.55555555555554%" stop-color="#e2e2e2" stop-opacity="1"></stop></linearGradient></defs><defs><linearGradient id="grad2_7" x1="0%" y1="0%" x2="56.3%" y2="100%"><stop offset="14.444444444444446%" stop-color="#dddddd" stop-opacity="1"></stop><stop offset="85.55555555555554%" stop-color="#e2e2e2" stop-opacity="1"></stop></linearGradient></defs><g transform="translate(960, 0)"><path d="M0 513C-68.2 506.4 -136.3 499.8 -196.3 474C-256.3 448.1 -308.1 403.1 -354.3 354.3C-400.4 305.5 -441 252.9 -466.6 193.3C-492.1 133.6 -502.5 66.8 -513 0L0 0Z" fill="#dfdfdf"></path><path d="M0 448.9C-59.6 443.1 -119.3 437.3 -171.8 414.7C-224.3 392.1 -269.6 352.7 -310 310C-350.4 267.3 -385.9 221.3 -408.2 169.1C-430.6 116.9 -439.7 58.4 -448.9 0L0 0Z" fill="#e4e4e4"></path><path d="M0 384.8C-51.1 379.8 -102.3 374.8 -147.2 355.5C-192.2 336.1 -231.1 302.3 -265.7 265.7C-300.3 229.1 -330.8 189.7 -349.9 144.9C-369.1 100.2 -376.9 50.1 -384.7 0L0 0Z" fill="#e9e9e9"></path><path d="M0 320.6C-42.6 316.5 -85.2 312.4 -122.7 296.2C-160.2 280.1 -192.5 251.9 -221.4 221.4C-250.3 190.9 -275.6 158.1 -291.6 120.8C-307.6 83.5 -314.1 41.7 -320.6 0L0 0Z" fill="#eeeeee"></path><path d="M0 256.5C-34.1 253.2 -68.2 249.9 -98.2 237C-128.1 224.1 -154 201.5 -177.1 177.1C-200.2 152.7 -220.5 126.5 -233.3 96.6C-246 66.8 -251.3 33.4 -256.5 0L0 0Z" fill="#f3f3f3"></path><path d="M0 192.4C-25.6 189.9 -51.1 187.4 -73.6 177.7C-96.1 168 -115.5 151.1 -132.8 132.8C-150.2 114.5 -165.4 94.8 -175 72.5C-184.5 50.1 -188.5 25 -192.4 0L0 0Z" fill="#f8f8f8"></path><path d="M0 128.3C-17 126.6 -34.1 124.9 -49.1 118.5C-64.1 112 -77 100.8 -88.6 88.6C-100.1 76.4 -110.3 63.2 -116.6 48.3C-123 33.4 -125.6 16.7 -128.2 0L0 0Z" fill="#fdfdfd"></path><path d="M0 64.1C-8.5 63.3 -17 62.5 -24.5 59.2C-32 56 -38.5 50.4 -44.3 44.3C-50.1 38.2 -55.1 31.6 -58.3 24.2C-61.5 16.7 -62.8 8.3 -64.1 0L0 0Z" fill="#ffffff"></path></g><g transform="translate(0, 540)"><path d="M0 -513C65.4 -501.2 130.8 -489.5 193.3 -466.6C255.7 -443.6 315.3 -409.5 362.7 -362.7C410.2 -316 445.4 -256.6 468.4 -194C491.4 -131.5 502.2 -65.7 513 0L0 0Z" fill="#dfdfdf"></path><path d="M0 -448.9C57.2 -438.6 114.4 -428.3 169.1 -408.2C223.8 -388.2 275.9 -358.3 317.4 -317.4C358.9 -276.5 389.7 -224.5 409.9 -169.8C430 -115 439.4 -57.5 448.9 0L0 0Z" fill="#e4e4e4"></path><path d="M0 -384.7C49 -375.9 98.1 -367.1 144.9 -349.9C191.8 -332.7 236.5 -307.1 272.1 -272.1C307.6 -237 334 -192.4 351.3 -145.5C368.6 -98.6 376.7 -49.3 384.8 0L0 0Z" fill="#e9e9e9"></path><path d="M0 -320.6C40.9 -313.3 81.7 -305.9 120.8 -291.6C159.8 -277.3 197.1 -255.9 226.7 -226.7C256.3 -197.5 278.4 -160.4 292.8 -121.3C307.1 -82.2 313.9 -41.1 320.6 0L0 0Z" fill="#eeeeee"></path><path d="M0 -256.5C32.7 -250.6 65.4 -244.7 96.6 -233.3C127.9 -221.8 157.7 -204.8 181.4 -181.4C205.1 -158 222.7 -128.3 234.2 -97C245.7 -65.7 251.1 -32.9 256.5 0L0 0Z" fill="#f3f3f3"></path><path d="M0 -192.4C24.5 -188 49 -183.6 72.5 -175C95.9 -166.4 118.2 -153.6 136 -136C153.8 -118.5 167 -96.2 175.7 -72.8C184.3 -49.3 188.3 -24.6 192.4 0L0 0Z" fill="#f8f8f8"></path><path d="M0 -128.2C16.3 -125.3 32.7 -122.4 48.3 -116.6C63.9 -110.9 78.8 -102.4 90.7 -90.7C102.5 -79 111.3 -64.1 117.1 -48.5C122.9 -32.9 125.6 -16.4 128.3 0L0 0Z" fill="#fdfdfd"></path><path d="M0 -64.1C8.2 -62.7 16.3 -61.2 24.2 -58.3C32 -55.5 39.4 -51.2 45.3 -45.3C51.3 -39.5 55.7 -32.1 58.6 -24.3C61.4 -16.4 62.8 -8.2 64.1 0L0 0Z" fill="#ffffff"></path></g></svg>