<?xml version="1.0" encoding="UTF-8"?><svg id="uuid-2346800b-da6a-4716-ae21-bd48722133f5" xmlns="http://www.w3.org/2000/svg" viewBox="0 0 500 500"><rect width="500" height="500" rx="73.14" ry="73.14"/><g><path d="M77.97,237.6v-42.52H210.14v42.52H77.97Zm29.41,143.86V186.57c0-21.73,6.38-38.98,19.13-51.73,12.76-12.76,30.94-19.13,54.57-19.13,7.79,0,15.47,.83,23.03,2.48,7.56,1.66,13.94,4.14,19.13,7.44l-14.53,40.39c-3.07-2.13-6.5-3.78-10.28-4.96-3.78-1.18-7.8-1.77-12.05-1.77-8.03,0-14.23,2.25-18.6,6.73-4.37,4.49-6.56,11.58-6.56,21.26v17.72l1.77,23.39v153.07h-55.63Z" style="fill:#fff;"/><path d="M329.9,384.29c-21.74,0-40.75-4.25-57.05-12.76-16.3-8.5-28.94-20.14-37.91-34.9-8.98-14.76-13.46-31.59-13.46-50.49s4.31-35.79,12.93-50.67c8.62-14.88,20.67-26.51,36.14-34.9,15.47-8.38,32.89-12.58,52.26-12.58s35.49,4.02,50.49,12.05c15,8.03,26.87,19.37,35.61,34.02,8.74,14.65,13.11,32.24,13.11,52.8,0,2.13-.12,4.55-.35,7.26-.24,2.72-.48,5.26-.71,7.62h-154.84v-32.24h125.79l-21.62,9.57c.23-9.92-1.65-18.54-5.67-25.87-4.02-7.32-9.57-13.05-16.65-17.19-7.09-4.13-15.36-6.2-24.8-6.2s-17.78,2.07-24.98,6.2c-7.21,4.14-12.82,9.92-16.83,17.36-4.02,7.44-6.02,16.24-6.02,26.4v8.5c0,10.63,2.36,19.84,7.09,27.64,4.72,7.8,11.22,13.76,19.49,17.89,8.27,4.14,18.19,6.2,29.76,6.2,9.92,0,18.72-1.53,26.4-4.61,7.67-3.07,14.71-7.67,21.08-13.82l29.41,31.89c-8.74,9.92-19.73,17.54-32.95,22.85-13.23,5.31-28.47,7.97-45.71,7.97Z" style="fill:#fff;"/></g></svg>