<?xml version="1.0" standalone="no"?>
<!DOCTYPE svg PUBLIC "-//W3C//DTD SVG 20010904//EN"
 "http://www.w3.org/TR/2001/REC-SVG-20010904/DTD/svg10.dtd">
<svg version="1.0" xmlns="http://www.w3.org/2000/svg"
 width="700.000000pt" height="700.000000pt" viewBox="0 0 700.000000 700.000000"
 preserveAspectRatio="xMidYMid meet">
<metadata>
Created by potrace 1.14, written by Peter Selinger 2001-2017
</metadata>
<g transform="translate(0.000000,700.000000) scale(0.100000,-0.100000)"
fill="#000000" stroke="none">
<path d="M854 6985 c-413 -75 -723 -364 -827 -772 l-22 -88 0 -2625 0 -2625
22 -88 c98 -381 379 -662 760 -760 l88 -22 2630 0 2630 0 96 27 c375 103 646
379 742 755 l22 88 0 2625 0 2625 -22 88 c-32 125 -77 227 -146 330 -142 213
-342 355 -596 425 l-96 27 -2605 2 c-2087 1 -2619 -1 -2676 -12z m1877 -1619
c58 -8 134 -22 170 -31 76 -19 219 -84 219 -99 0 -8 -189 -543 -195 -554 -1
-1 -35 13 -74 32 -167 80 -373 71 -480 -21 -77 -65 -111 -163 -111 -320 l0
-103 340 0 340 0 0 -300 0 -300 -330 0 -330 0 0 -1005 0 -1005 -390 0 -390 0
0 1005 0 1005 -205 0 -205 0 0 300 0 300 203 0 204 0 7 143 c14 313 96 525
269 699 213 213 564 306 958 254z m2069 -1021 c323 -54 637 -236 824 -479 147
-191 216 -349 263 -599 17 -96 25 -450 9 -475 -5 -9 -235 -12 -1013 -12
l-1005 0 7 -36 c25 -137 160 -314 299 -393 232 -133 607 -147 861 -32 77 35
189 108 224 145 14 14 30 26 36 26 6 0 76 -71 156 -157 79 -87 170 -186 203
-220 l58 -63 -67 -65 c-164 -156 -373 -265 -617 -319 -399 -89 -834 -48 -1168
110 -392 186 -653 511 -742 927 -29 138 -31 425 -4 567 84 432 342 769 730
954 143 69 300 112 486 136 101 12 343 4 460 -15z"/>
<path d="M4345 3762 c-228 -58 -392 -216 -459 -441 -30 -102 -105 -91 638 -91
l654 0 -14 63 c-48 209 -204 383 -411 454 -104 35 -299 43 -408 15z"/>
</g>
</svg>
