<svg version="1.1" xmlns="http://www.w3.org/2000/svg" xmlns:xlink="http://www.w3.org/1999/xlink" width="1560" height="2200"><defs/><g><path fill="none" stroke="#8e8e8e" paint-order="fill stroke markers" d=" M 20 415.04761555647696 L 21 415.69337393338554 L 22 416.3381653380921 L 23 416.9819442379641 L 24 417.62466517186806 L 25 418.26628275337987 L 26 418.9067516739898 L 27 419.54602670630203 L 28 420.1840627072286 L 29 420.82081462117685 L 30 421.4562374832314 L 31 422.0902864223293 L 32 422.7229166644286 L 33 423.3540835356702 L 34 423.9837424655324 L 35 424.6118489899784 L 36 425.23835875459633 L 37 425.86322751773105 L 38 426.48641115360846 L 39 427.1078656554517 L 40 427.7275471385883 L 41 428.34541184354975 L 42 428.9614161391609 L 43 429.5755165256216 L 44 430.1876696375782 L 45 430.797832247186 L 46 431.40596126716173 L 47 432.012013753826 L 48 432.61594691013636 L 49 433.2177180887089 L 50 433.81728479483024 L 51 434.41460468945803 L 52 435.009635592211 L 53 435.60233548434746 L 54 436.19266251173246 L 55 436.78057498779356 L 56 437.3660313964643 L 57 437.9489903951161 L 58 438.5294108174776 L 59 439.1072516765418 L 60 439.6824721674603 L 61 440.25503167042467 L 62 440.82488975353516 L 63 441.3920061756555 L 64 441.95634088925493 L 65 442.51785404323573 L 66 443.0765059857479 L 67 443.6322572669887 L 68 444.18506864198883 L 69 444.73490107338364 L 70 445.2817157341696 L 71 445.8254740104463 L 72 446.3661375041434 L 73 446.9036680357317 L 74 447.4380276469194 L 75 447.9691786033329 L 76 448.49708339718103 L 77 449.0217047499038 L 78 449.54300561480494 L 79 450.060949179668 L 80 450.57549886935595 L 81 451.08661834839364 L 82 451.59427152353413 L 83 452.0984225463071 L 84 452.5990358155505 L 85 453.0960759799244 L 86 453.58950794040777 L 87 454.07929685277645 L 88 454.5654081300641 L 89 455.04780744500454 L 90 455.52646073245575 L 91 456.0013341918054 L 92 456.4723942893579 L 93 456.9396077607021 L 94 457.4029416130604 L 95 457.8623631276189 L 96 458.31783986183734 L 97 458.76933965174055 L 98 459.2168306141894 L 99 459.66028114913235 L 100 460.099659941837 L 101 460.53493596510145 L 102 460.96607848144515 L 103 461.39305704527953 L 104 461.815841505058 L 105 462.2344020054051 L 106 462.64870898922493 L 107 463.0587331997878 L 108 463.464445682797 L 109 463.86581778843293 L 110 464.2628211733763 L 111 464.65542780280975 L 112 465.0436099523975 L 113 465.4273402102432 L 114 465.80659147882534 L 115 466.1813369769113 L 116 466.55155024144824 L 117 466.91720512943147 L 118 467.27827581975134 L 119 467.6347368150159 L 120 467.98656294335206 L 121 468.33372936018236 L 122 468.6762115499803 L 123 469.01398532800073 L 124 469.34702684198817 L 125 469.67531257386094 L 126 469.9988193413721 L 127 470.3175242997462 L 128 470.63140494329286 L 129 470.94043910699565 L 130 471.2446049680776 L 131 471.5438810475421 L 132 471.8382462116897 L 133 472.1276796736103 L 134 472.4121609946516 L 135 472.6916700858615 L 136 472.9661872094077 L 137 473.2356929799706 L 138 473.500168366113 L 139 473.75959469162336 L 140 474.01395363683514 L 141 474.2632272399202 L 142 474.5073978981572 L 143 474.7464483691748 L 144 474.980361772169 L 145 475.2091215890955 L 146 475.4327116658358 L 147 475.65111621333836 L 148 475.86431980873306 L 149 476.0723073964207 L 150 476.2750642891359 L 151 476.4725761689846 L 152 476.6648290884547 L 153 476.85180947140145 L 154 477.0335041140055 L 155 477.20990018570603 L 156 477.3809852301064 L 157 477.5467471658536 L 158 477.70717428749197 L 159 477.8622552662891 L 160 478.01197915103637 L 161 478.156335368822 L 162 478.2953137257777 L 163 478.42890440779865 L 164 478.55709798123644 L 165 478.67988539356503 L 166 478.79725797402045 L 167 478.9092074342128 L 168 479.0157258687115 L 169 479.1168057556038 L 170 479.21243995702565 L 171 479.302621719666 L 172 479.3873446752434 L 173 479.46660284095606 L 174 479.54039061990414 L 175 479.6087028014849 L 176 479.67153456176084 L 177 479.7288814638001 L 178 479.78073945799014 L 179 479.8271048823234 L 180 479.8679744626559 L 181 479.90334531293877 L 182 479.9332149354217 L 183 479.9575812208293 L 184 479.9764424485105 L 185 479.9897972865595 L 186 479.99764479191026 L 187 479.9999844104027 L 188 479.9968159768223 L 189 479.98813971491126 L 190 479.97395623735315 L 191 479.9542665457293 L 192 479.9290720304483 L 193 479.89837447064775 L 194 479.8621760340685 L 195 479.8204792769018 L 196 479.7732871436086 L 197 479.7206029667118 L 198 479.6624304665605 L 199 479.5987737510681 L 200 479.5296373154213 L 201 479.45502604176323 L 202 479.3749451988486 L 203 479.28940044167143 L 204 479.19839781106606 L 205 479.1019437332802 L 206 479.00004501952156 L 207 478.89270886547627 L 208 478.77994285080143 L 209 478.6617549385894 L 210 478.5381534748056 L 211 478.4091471876992 L 212 478.2747451871867 L 213 478.13495696420875 L 214 477.98979239005973 L 215 477.8392617156909 L 216 477.6833755709862 L 217 477.5221449640121 L 218 477.3555812802398 L 219 477.18369628174145 L 220 477.0065021063595 L 221 476.82401126684954 L 222 476.6362366499969 L 223 476.44319151570625 L 224 476.24488949606575 L 225 476.0413445943838 L 226 475.83257118420084 L 227 475.61858400827373 L 228 475.3993981775352 L 229 475.1750291700263 L 230 474.94549282980375 L 231 474.71080536582105 L 232 474.47098335078374 L 233 474.22604371997903 L 234 473.9760037700802 L 235 473.7208811579249 L 236 473.46069389926856 L 237 473.1954603675117 L 238 472.9251992924032 L 239 472.6499297587169 L 240 472.3696712049045 L 241 472.08444342172265 L 242 471.79426655083535 L 243 471.49916108339187 L 244 471.1991478585794 L 245 470.8942480621517 L 246 470.584483224933 L 247 470.26987522129775 L 248 469.9504462676254 L 249 469.6262189207323 L 250 469.2972160762782 L 251 468.96346096714973 L 252 468.62497716181997 L 253 468.2817885626836 L 254 467.9339194043696 L 255 467.58139425202955 L 256 467.2242379996029 L 257 466.86247586805933 L 258 466.4961334036175 L 259 466.12523647594116 L 260 465.74981127631236 L 261 465.3698843157819 L 262 464.9854824232973 L 263 464.596632743808 L 264 464.2033627363488 L 265 463.8057001721006 L 266 463.4036731324295 L 267 462.9973100069035 L 268 462.58663949128805 L 269 462.17169058551957 L 270 461.7524925916575 L 271 461.32907511181514 L 272 460.90146804606934 L 273 460.469701590349 L 274 460.0338062343029 L 275 459.5938127591463 L 276 459.14975223548765 L 277 458.7016560211344 L 278 458.2495557588785 L 279 457.79348337426205 L 280 457.33347107332287 L 281 456.8695513403201 L 282 456.4017569354403 L 283 455.93012089248424 L 284 455.45467651653405 L 285 454.97545738160125 L 286 454.49249732825615 L 287 454.00583046123785 L 288 453.5154911470461 L 289 453.02151401151445 L 290 452.5239339373651 L 291 452.02278606174553 L 292 451.5181057737474 L 293 451.0099287119074 L 294 450.4982907616906 L 295 449.98322805295646 L 296 449.4647769574074 L 297 448.94297408602034 L 298 448.4178562864615 L 299 447.8894606404841 L 300 447.3578244613104 L 301 446.8229852909958 L 302 446.28498089777884 L 303 445.7438492734133 L 304 445.1996286304859 L 305 444.6523573997177 L 306 444.1020742272502 L 307 443.54881797191643 L 308 442.9926277024968 L 309 442.4335426949603 L 310 441.8716024296908 L 311 441.3068465886995 L 312 440.7393150528222 L 313 440.1690478989035 L 314 439.59608539696666 L 315 439.02046800736963 L 316 438.4422363779482 L 317 437.8614313411455 L 318 437.27809391112845 L 319 436.6922652808918 L 320 436.10398681934885 L 321 435.51330006841056 L 322 434.9202467400517 L 323 434.32486871336545 L 324 433.727208031606 L 325 433.12730689921966 L 326 432.52520767886466 L 327 431.9209528884195 L 328 431.3145851979805 L 329 430.70614742684864 L 330 430.095682540506 L 331 429.4832336475815 L 332 428.86884399680673 L 333 428.2525569739621 L 334 427.63441609881284 L 335 427.014465022036 L 336 426.39274752213794 L 337 425.76930750236284 L 338 425.14418898759254 L 339 424.51743612123755 L 340 423.8890931621198 L 341 423.25920448134747 L 342 422.6278145591813 L 343 421.9949679818939 L 344 421.3607094386213 L 345 420.72508371820675 L 346 420.0881357060383 L 347 419.44991038087903 L 348 418.8104528116909 L 349 418.1698081544519 L 350 417.52802164896775 L 351 416.8851386156768 L 352 416.2412044524501 L 353 415.5962646313851 L 354 414.9503646955951 L 355 414.3035502559927 L 356 413.65586698806936 L 357 413.00736062866963 L 358 412.35807697276164 L 359 411.7080618702031 L 360 411.0573612225035 L 361 410.40602097958316 L 362 409.7540871365277 L 363 409.1016057303406 L 364 408.44862283669227 L 365 407.7951845666659 L 366 407.14133706350185 L 367 406.4871264993387 L 368 405.8325990719529 L 369 405.17780100149696 L 370 404.52277852723466 L 371 403.8675779042766 L 372 403.2122454003133 L 373 402.55682729234843 L 374 401.90136986343055 L 375 401.24591939938495 L 376 400.59052218554507 L 377 399.935224503484 L 378 399.28007262774634 L 379 398.62511282258043 L 380 397.9703913386713 L 381 397.3159544098747 L 382 396.66184824995213 L 383 396.00811904930765 L 384 395.3548129717259 L 385 394.70197615111204 L 386 394.0496546882344 L 387 393.3978946474686 L 388 392.746742053545 L 389 392.0962428882983 L 390 391.4464430874208 L 391 390.7973885372182 L 392 390.1491250713697 L 393 389.5016984676913 L 394 388.8551544449029 L 395 388.2095386594001 L 396 387.56489670203007 L 397 386.921274094872 L 398 386.2787162880227 L 399 385.6372686563867 L 400 384.9969764964727 L 401 384.35788502319417 L 402 383.72003936667716 L 403 383.08348456907265 L 404 382.4482655813766 L 405 381.8144272602551 L 406 381.18201436487715 L 407 380.5510715537537 L 408 379.9216433815841 L 409 379.2937742961099 L 410 378.6675086349761 L 411 378.0428906226002 L 412 377.41996436704926 L 413 376.798773856925 L 414 376.17936295825757 L 415 375.56177541140823 L 416 374.9460548279801 L 417 374.33224468773875 L 418 373.7203883355417 L 419 373.1105289782778 L 420 372.5027096818158 L 421 371.8969733679635 L 422 371.2933628114366 L 423 370.6919206368382 L 424 370.0926893156487 L 425 369.49571116322704 L 426 368.9010283358218 L 427 368.30868282759513 L 428 367.7187164676567 L 429 367.13117091711007 L 430 366.5460876661108 L 431 365.96350803093657 L 432 365.38347315106955 L 433 364.80602398629134 L 434 364.23120131379034 L 435 363.6590457252826 L 436 363.0895976241452 L 437 362.52289722256285 L 438 361.95898453868875 L 439 361.3978993938184 L 440 360.8396814095776 L 441 360.28437000512463 L 442 359.7320043943664 L 443 359.1826235831895 L 444 358.63626636670574 L 445 358.0929713265126 L 446 357.5527768279686 L 447 357.01572101748434 L 448 356.48184181982856 L 449 355.95117693545006 L 450 355.42376383781556 L 451 354.89963977076326 L 452 354.37884174587316 L 453 353.861406539853 L 454 353.3473706919417 L 455 352.83677050132883 L 456 352.32964202459124 L 457 351.8260210731471 L 458 351.3259432107269 L 459 350.8294437508622 L 460 350.3365577543917 L 461 349.8473200269858 L 462 349.3617651166881 L 463 348.8799273114765 L 464 348.4018406368413 L 465 347.9275388533829 L 466 347.4570554544275 L 467 346.990423663662 L 468 346.52767643278787 L 469 346.06884643919426 L 470 345.61396608365044 L 471 345.1630674880178 L 472 344.71618249298143 L 473 344.27334265580186 L 474 343.8345792480863 L 475 343.3999232535807 L 476 342.96940536598163 L 477 342.5430559867687 L 478 342.12090522305806 L 479 341.70298288547605 L 480 341.28931848605407 L 481 340.8799412361449 L 482 340.4748800443595 L 483 340.0741635145259 L 484 339.6778199436691 L 485 339.285877320013 L 486 338.898363321004 L 487 338.51530531135626 L 488 338.13673034111963 L 489 337.76266514376937 L 490 337.3931361343181 L 491 337.02816940745106 L 492 336.66779073568273 L 493 336.3120255675374 L 494 335.9608990257516 L 495 335.61443590550067 L 496 335.27266067264725 L 497 334.9355974620138 L 498 334.6032700756784 L 499 334.27570198129376 L 500 333.9529163104303 L 501 333.6349358569422 L 502 333.3217830753583 L 503 333.01348007929624 L 504 332.71004863990083 L 505 332.4115101843067 L 506 332.1178857941252 L 507 331.8291962039558 L 508 331.5454617999217 L 509 331.2667026182305 L 510 330.99293834375896 L 511 330.72418830866326 L 512 330.4604714910137 L 513 330.20180651345464 L 514 329.9482116418892 L 515 329.69970478418975 L 516 329.4563034889329 L 517 329.2180249441608 L 518 328.9848859761669 L 519 328.756903048308 L 520 328.5340922598417 L 521 328.3164693447894 L 522 328.10404967082536 L 523 327.89684823819135 L 524 327.69487967863745 L 525 327.4981582543888 L 526 327.30669785713866 L 527 327.1205120070671 L 528 326.9396138518864 L 529 326.7640161659127 L 530 326.59373134916393 L 531 326.428771426484 L 532 326.2691480466936 L 533 326.1148724817681 L 534 325.96595562604085 L 535 325.8224079954345 L 536 325.6842397267181 L 537 325.55146057679116 L 538 325.42407992199503 L 539 325.3021067574505 L 540 325.1855496964225 L 541 325.0744169697124 L 542 324.96871642507597 L 543 324.86845552667006 L 544 324.77364135452484 L 545 324.6842806040442 L 546 324.6003795855328 L 547 324.52194422375055 L 548 324.4489800574942 L 549 324.38149223920607 L 550 324.3194855346105 L 551 324.262964322377 L 552 324.2119325938112 L 553 324.1663939525731 L 554 324.12635161442245 L 555 324.0918084069915 L 556 324.0627667695859 L 557 324.0392287530116 L 558 324.02119601943093 L 559 324.0086698422445 L 560 324.0016511060017 L 561 324.0001403063381 L 562 324.00413754994037 L 563 324.01364255453893 L 564 324.0286546489277 L 565 324.0491727730118 L 566 324.0751954778817 L 567 324.10672092591665 L 568 324.14374689091335 L 569 324.1862707582439 L 570 324.23428952503997 L 571 324.2877998004052 L 572 324.34679780565443 L 573 324.41127937458054 L 574 324.4812399537489 L 575 324.55667460281853 L 576 324.6375779948913 L 577 324.7239444168878 L 578 324.81576776995115 L 579 324.91304156987735 L 580 325.01575894757326 L 581 325.12391264954175 L 582 325.23749503839383 L 583 325.3564980933879 L 584 325.4809134109965 L 585 325.6107322054992 L 586 325.74594530960337 L 587 325.88654317509156 L 588 326.0325158734955 L 589 326.1838530967976 L 590 326.34054415815825 L 591 326.5025779926712 L 592 326.6699431581444 L 593 326.8426278359082 L 594 327.02061983165004 L 595 327.2039065762752 L 596 327.39247512679486 L 597 327.5863121672397 L 598 327.7854040096005 L 599 327.9897365947944 L 600 328.1992954936581 L 601 328.41406590796646 L 602 328.6340326714776 L 603 328.8591802510041 L 604 329.08949274750944 L 605 329.32495389723107 L 606 329.5655470728289 L 607 329.81125528455925 L 608 330.06206118147475 L 609 330.3179470526496 L 610 330.57889482843007 L 611 330.8448860817107 L 612 331.1159020292355 L 613 331.39192353292447 L 614 331.67293110122466 L 615 331.958904890487 L 616 332.2498247063676 L 617 332.54567000525316 L 618 332.84641989571264 L 619 333.1520531399717 L 620 333.46254815541306 L 621 333.7778830160999 L 622 334.09803545432493 L 623 334.42298286218227 L 624 334.75270229316425 L 625 335.0871704637817 L 626 335.42636375520794 L 627 335.7702582149472 L 628 336.11882955852536 L 629 336.4720531712054 L 630 336.82990410972513 L 631 337.19235710405906 L 632 337.5593865592025 L 633 337.930966556979 L 634 338.3070708578708 L 635 338.6876729028718 L 636 339.07274581536257 L 637 339.4622624030089 L 638 339.8561951596815 L 639 340.2545162673987 L 640 340.65719759829085 L 641 341.0642107165862 L 642 341.4755268806196 L 643 341.89111704486135 L 644 342.31095186196893 L 645 342.73500168485907 L 646 343.16323656880127 L 647 343.5956262735326 L 648 344.032140265393 L 649 344.4727477194815 L 650 344.9174175218328 L 651 345.3661182716147 L 652 345.8188182833453 L 653 346.2754855891306 L 654 346.7360879409217 L 655 347.2005928127925 L 656 347.668967403236 L 657 348.1411786374813 L 658 348.61719316982834 L 659 349.0969773860034 L 660 349.58049740553247 L 661 350.0677190841338 L 662 350.55860801612897 L 663 351.0531295368726 L 664 351.5512487252002 L 665 352.0529304058941 L 666 352.5581391521675 L 667 353.06683928816597 L 668 353.57899489148707 L 669 354.0945697957167 L 670 354.6135275929833 L 671 355.1358316365285 L 672 355.66144504329543 L 673 356.1903306965328 L 674 356.7224512484163 L 675 357.25776912268566 L 676 357.7962465172985 L 677 358.33784540709934 L 678 358.882527546505 L 679 359.4302544722055 L 680 359.9809875058798 L 681 360.53468775692755 L 682 361.0913161252151 L 683 361.65083330383663 L 684 362.21319978188995 L 685 362.7783758472666 L 686 363.34632158945595 L 687 363.9169969023639 L 688 364.49036148714464 L 689 365.06637485504666 L 690 365.64499633027174 L 691 366.22618505284737 L 692 366.8098999815122 L 693 367.39609989661415 L 694 367.9847434030211 L 695 368.5757889330442 L 696 369.169194749373 L 697 369.764918948023 L 698 370.36291946129484 L 699 370.96315406074444 L 700 371.56558036016565 L 701 372.1701558185828 L 702 372.7768377432554 L 703 373.3855832926922 L 704 373.9963494796773 L 705 374.609093174305 L 706 375.2237711070259 L 707 375.84033987170244 L 708 376.4587559286738 L 709 377.0789756078306 L 710 377.700955111699 L 711 378.32465051853296 L 712 378.95001778541626 L 713 379.5770127513726 L 714 380.20559114048376 L 715 380.83570856501666 L 716 381.4673205285573 L 717 382.10038242915346 L 718 382.734849562464 L 719 383.37067712491563 L 720 384.0078202168671 L 721 384.64623384577965 L 722 385.285872929394 L 723 385.9266922989142 L 724 386.56864670219716 L 725 387.2116908069482 L 726 387.8557792039221 L 727 388.50086641013 L 728 389.1469068720508 L 729 389.7938549688486 L 730 390.4416650155935 L 731 391.0902912664883 L 732 391.7396879180987 L 733 392.3898091125876 L 734 393.0406089409537 L 735 393.6920414462731 L 736 394.3440606269448 L 737 394.996620439939 L 738 395.64967480404886 L 739 396.303177603144 L 740 396.9570826894273 L 741 397.61134388669393 L 742 398.2659149935918 L 743 398.92074978688413 L 744 399.57580202471377 L 745 400.2310254498684 L 746 400.88637379304726 L 747 401.5418007761282 L 748 402.1972601154359 L 749 402.8527055250102 L 750 403.5080907198746 L 751 404.1633694193047 L 752 404.8184953500964 L 753 405.47342224983345 L 754 406.1281038701546 L 755 406.78249398001896 L 756 407.4365463689712 L 757 408.0902148504045 L 758 408.7434532648219 L 759 409.39621548309634 L 760 410.0484554097276 L 761 410.7001269860977 L 762 411.35118419372355 L 763 412.0015810575061 L 764 412.65127164897723 L 765 413.3002100895431 L 766 413.9483505537238 L 767 414.5956472723892 L 768 415.2420545359913 L 769 415.88752669779205 L 770 416.53201817708623 L 771 417.17548346242097 L 772 417.8178771148089 L 773 418.4591537709373 L 774 419.09926814637123 L 775 419.7381750387516 L 776 420.3758293309868 L 777 421.01218599443905 L 778 421.6472000921041 L 779 422.2808267817842 L 780 422.91302131925505 L 781 423.54373906142524 L 782 424.17293546948883 L 783 424.8005661120706 L 784 425.4265866683634 L 785 426.05095293125817 L 786 426.6736208104654 L 787 427.2945463356289 L 788 427.91368565943054 L 789 428.53099506068685 L 790 429.1464309474361 L 791 429.7599498600169 L 792 430.37150847413704 L 793 430.98106360393285 L 794 431.5885722050189 L 795 432.19399137752754 L 796 432.7972783691382 L 797 433.39839057809684 L 798 433.9972855562237 L 799 434.5939210119113 L 800 435.18825481311075 L 801 435.7802449903069 L 802 436.3698497394822 L 803 436.95702742506853 L 804 437.5417365828875 L 805 438.12393592307836 L 806 438.703584333014 L 807 439.2806408802038 L 808 439.8550648151844 L 809 440.42681557439704 L 810 440.9958527830522 L 811 441.5621362579806 L 812 442.12562601047085 L 813 442.6862822490932 L 814 443.24406538250946 L 815 443.79893602226895 L 816 444.35085498558976 L 817 444.8997832981257 L 818 445.4456821967188 L 819 445.98851313213606 L 820 446.5282377717922 L 821 447.06481800245626 L 822 447.5982159329431 L 823 448.128393896789 L 824 448.65531445491183 L 825 449.17894039825444 L 826 449.6992347504124 L 827 450.2161607702454 L 828 450.7296819544712 L 829 451.2397620402438 L 830 451.7463650077142 L 831 452.2494550825734 L 832 452.7489967385794 L 833 453.24495470006553 L 834 453.7372939444315 L 835 454.22597970461646 L 836 454.71097747155443 L 837 455.19225299661093 L 838 455.6697722940016 L 839 456.14350164319194 L 840 456.61340759127893 L 841 457.07945695535284 L 842 457.541616824841 L 843 457.9998545638313 L 844 458.4541378133773 L 845 458.9044344937828 L 846 459.3507128068676 L 847 459.7929412382127 L 848 460.2310885593859 L 849 460.66512383014685 L 850 461.0950164006322 L 851 461.5207359135195 L 852 461.94225230617155 L 853 462.35953581275874 L 854 462.77255696636126 L 855 463.18128660105 L 856 463.58569585394594 L 857 463.9857561672584 L 858 464.38143929030184 L 859 464.77271728149054 L 860 465.15956251031196 L 861 465.5419476592777 L 862 465.9198457258528 L 863 466.2932300243623 L 864 466.66207418787576 L 865 467.0263521700693 L 866 467.38603824706473 L 867 467.7411070192463 L 868 468.09153341305387 L 869 468.4372926827541 L 870 468.7783604121874 L 871 469.11471251649243 L 872 469.4463252438066 L 873 469.7731751769436 L 874 470.09523923504685 L 875 470.41249467521953 L 876 470.72491909413037 L 877 471.0324904295959 L 878 471.3351869621383 L 879 471.6329873165192 L 880 471.9258704632489 L 881 472.2138157200717 L 882 472.4968027534263 L 883 472.7748115798816 L 884 473.0478225675479 L 885 473.315816437463 L 886 473.57877426495423 L 887 473.83667748097406 L 888 474.08950787341195 L 889 474.33724758838014 L 890 474.5798791314744 L 891 474.8173853690097 L 892 475.0497495292297 L 893 475.2769552034916 L 894 475.49898634742425 L 895 475.7158272820618 L 896 475.92746269495046 L 897 476.13387764122973 L 898 476.33505754468814 L 899 476.53098819879233 L 900 476.72165576769015 L 901 476.907046787188 L 902 477.08714816570125 L 903 477.2619471851791 L 904 477.43143150200234 L 905 477.5955891478552 L 906 477.7544085305705 L 907 477.9078784349482 L 908 478.05598802354734 L 909 478.1987268374513 L 910 478.3360847970067 L 911 478.46805220253464 L 912 478.594619735016 L 913 478.71577845674966 L 914 478.8315198119832 L 915 478.94183562751743 L 916 479.04671811328336 L 917 479.14615986289243 L 918 479.24015385415953 L 919 479.3286934495987 L 920 479.41177239689193 L 921 479.4893848293308 L 922 479.56152526623066 L 923 479.62818861331766 L 924 479.68937016308837 L 925 479.74506559514253 L 926 479.7952709764877 L 927 479.8399827618174 L 928 479.87919779376125 L 929 479.91291330310787 L 930 479.9411269090007 L 931 479.96383661910585 L 932 479.9810408297529 L 933 479.9927383260482 L 934 479.99892828196056 L 935 479.99961026037965 L 936 479.9947842131469 L 937 479.9844504810586 L 938 479.96860979384246 L 939 479.9472632701054 L 940 479.92041241725497 L 941 479.88805913139277 L 942 479.8502056971806 L 943 479.8068547876791 L 944 479.7580094641589 L 945 479.70367317588466 L 946 479.6438497598713 L 947 479.5785434406131 L 948 479.50775882978553 L 949 479.4315009259193 L 950 479.3497751140476 L 951 479.2625871653257 L 952 479.1699432366238 L 953 479.0718498700915 L 954 478.9683139926966 L 955 478.8593429157354 L 956 478.74494433431676 L 957 478.6251263268185 L 958 478.4998973543169 L 959 478.36926625998944 L 960 478.2332422684902 L 961 478.0918349852983 L 962 477.9450543960399 L 963 477.7929108657828 L 964 477.63541513830455 L 965 477.472578335334 L 966 477.3044119557656 L 967 477.13092787484754 L 968 476.95213834334317 L 969 476.7680559866659 L 970 476.57869380398773 L 971 476.384065167321 L 972 476.18418382057456 L 973 475.9790638785827 L 974 475.7687198261089 L 975 475.5531665168228 L 976 475.3324191722511 L 977 475.10649338070294 L 978 474.875405096169 L 979 474.639170637195 L 980 474.397806685729 L 981 474.1513302859439 L 982 473.8997588430335 L 983 473.6431101219835 L 984 473.381402246317 L 985 473.1146536968147 L 986 472.8428833102099 L 987 472.5661102778582 L 988 472.2843541443824 L 989 471.99763480629235 L 990 471.7059725105799 L 991 471.40938785328893 L 992 471.10790177806143 L 993 470.8015355746579 L 994 470.49031087745465 L 995 470.1742496639155 L 996 469.85337425304 L 997 469.5277073037875 L 998 469.1972718134769 L 999 468.8620911161627 L 1000 468.5221888809872 L 1001 468.17758911050925 L 1002 467.8283161390091 L 1003 467.47439463077 L 1004 467.11584957833674 L 1005 466.75270630075045 L 1006 466.384990441761 L 1007 466.0127279680157 L 1008 465.63594516722634 L 1009 465.25466864631204 L 1010 464.86892532952083 L 1011 464.47874245652844 L 1012 464.0841475805145 L 1013 463.68516856621693 L 1014 463.2818335879643 L 1015 462.8741711276861 L 1016 462.4622099729018 L 1017 462.0459792146875 L 1018 461.62550824562214 L 1019 461.2008267577115 L 1020 460.77196474029176 L 1021 460.33895247791145 L 1022 459.90182054819337 L 1023 459.46059981967477 L 1024 459.01532144962795 L 1025 458.56601688185975 L 1026 458.1127178444914 L 1027 457.6554563477177 L 1028 457.1942646815469 L 1029 456.7291754135203 L 1030 456.26022138641247 L 1031 455.7874357159121 L 1032 455.3108517882835 L 1033 454.8305032580089 L 1034 454.3464240454119 L 1035 453.85864833426234 L 1036 453.3672105693622 L 1037 452.8721454541133 L 1038 452.37348794806667 L 1039 451.87127326445375 L 1040 451.3655368677 L 1041 450.8563144709203 L 1042 450.34364203339726 L 1043 449.8275557580418 L 1044 449.3080920888365 L 1045 448.7852877082622 L 1046 448.2591795347079 L 1047 447.7298047198632 L 1048 447.19720064609504 L 1049 446.6614049238081 L 1050 446.1224553887887 L 1051 445.58039009953285 L 1052 445.035247334559 L 1053 444.4870655897049 L 1054 443.93588357540887 L 1055 443.3817402139767 L 1056 442.82467463683264 L 1057 442.26472618175654 L 1058 441.7019343901056 L 1059 441.1363390040223 L 1060 440.567979963628 L 1061 439.9968974042023 L 1062 439.4231316533492 L 1063 438.8467232281489 L 1064 438.26771283229715 L 1065 437.6861413532303 L 1066 437.1020498592386 L 1067 436.5154795965657 L 1068 435.9264719864962 L 1069 435.3350686224305 L 1070 434.74131126694783 L 1071 434.14524184885704 L 1072 433.5469024602356 L 1073 432.94633535345747 L 1074 432.34358293820935 L 1075 431.7386877784958 L 1076 431.1316925896335 L 1077 430.5226402352349 L 1078 429.91157372418155 L 1079 429.2985362075867 L 1080 428.68357097574835 L 1081 428.06672145509197 L 1082 427.4480312051043 L 1083 426.82754391525714 L 1084 426.205303401922 L 1085 425.58135360527626 L 1086 424.95573858620014 L 1087 424.3285025231654 L 1088 423.69968970911543 L 1089 423.06934454833754 L 1090 422.43751155332757 L 1091 421.80423534164606 L 1092 421.169560632768 L 1093 420.53353224492486 L 1094 419.8961950919393 L 1095 419.2575941800541 L 1096 418.6177746047536 L 1097 417.9767815475793 L 1098 417.3346602729395 L 1099 416.69145612491275 L 1100 416.0472145240457 L 1101 415.40198096414605 L 1102 414.7558010090697 L 1103 414.10872028950325 L 1104 413.46078449974164 L 1105 412.8120393944616 L 1106 412.1625307854905 L 1107 411.5123045385714 L 1108 410.861406570124 L 1109 410.2098828440025 L 1110 409.5577793682495 L 1111 408.90514219184735 L 1112 408.2520174014661 L 1113 407.59845111820937 L 1114 406.94448949435713 L 1115 406.2901787101068 L 1116 405.6355649703121 L 1117 404.9806945012203 L 1118 404.32561354720787 L 1119 403.6703683675149 L 1120 403.0150052329786 L 1121 402.35957042276533 L 1122 401.7041102211033 L 1123 401.04867091401354 L 1124 400.39329878604156 L 1125 399.7380401169891 L 1126 399.0829411786458 L 1127 398.4280482315217 L 1128 397.7734075215806 L 1129 397.1190652769743 L 1130 396.4650677047782 L 1131 395.8114609877282 L 1132 395.15829128095953 L 1133 394.50560470874757 L 1134 393.85344736125063 L 1135 393.2018652912552 L 1136 392.55090451092394 L 1137 391.90061098854653 L 1138 391.25103064529344 L 1139 390.6022093519733 L 1140 389.9541929257935 L 1141 389.30702712712514 L 1142 388.6607576562711 L 1143 388.0154301502391 L 1144 387.37109017951934 L 1145 386.72778324486575 L 1146 386.0855547740836 L 1147 385.4444501188211 L 1148 384.80451455136716 L 1149 384.1657932614542 L 1150 383.5283313530673 L 1151 382.8921738412588 L 1152 382.25736564896977 L 1153 381.62395160385756 L 1154 380.9919764351305 L 1155 380.3614847703889 L 1156 379.7325211324741 L 1157 379.10512993632403 L 1158 378.479355485837 L 1159 377.8552419707431 L 1160 377.23283346348376 L 1161 376.61217391609927 L 1162 375.9933071571256 L 1163 375.37627688849875 L 1164 374.7611266824691 L 1165 374.1478999785245 L 1166 373.5366400803224 L 1167 372.92739015263237 L 1168 372.3201932182877 L 1169 371.71509215514743 L 1170 371.11212969306837 L 1171 370.5113484108877 L 1172 369.91279073341633 L 1173 369.31649892844285 L 1174 368.72251510374895 L 1175 368.13088120413585 L 1176 367.54163900846214 L 1177 366.9548301266939 L 1178 366.370495996966 L 1179 365.78867788265603 L 1180 365.20941686947066 L 1181 364.632753862544 L 1182 364.05872958354917 L 1183 363.4873845678227 L 1184 362.9187591615022 L 1185 362.352893518677 L 1186 361.78982759855285 L 1187 361.2296011626302 L 1188 360.6722537718962 L 1189 360.1178247840311 L 1190 359.56635335062913 L 1191 359.01787841443365 L 1192 358.472438706587 L 1193 357.93007274389595 L 1194 357.3908188261111 L 1195 356.85471503322304 L 1196 356.3217992227727 L 1197 355.7921090271783 L 1198 355.26568185107783 L 1199 354.74255486868765 L 1200 354.2227650211775 L 1201 353.70634901406174 L 1202 353.19334331460726 L 1203 352.6837841492587 L 1204 352.17770750107985 L 1205 351.67514910721286 L 1206 351.1761444563545 L 1207 350.6807287862505 L 1208 350.18893708120646 L 1209 349.7008040696182 L 1210 349.2163642215188 L 1211 348.7356517461447 L 1212 348.2587005895199 L 1213 347.785544432059 L 1214 347.31621668618857 L 1215 346.85075049398785 L 1216 346.3891787248483 L 1217 345.9315339731526 L 1218 345.4778485559729 L 1219 345.02815451078874 L 1220 344.58248359322454 L 1221 344.14086727480753 L 1222 343.7033367407449 L 1223 343.2699228877218 L 1224 342.8406563217197 L 1225 342.41556735585476 L 1226 341.99468600823775 L 1227 341.5780419998538 L 1228 341.1656647524638 L 1229 340.7575833865268 L 1230 340.3538267191436 L 1231 339.95442326202186 L 1232 339.55940121946253 L 1233 339.16878848636844 L 1234 338.78261264627423 L 1235 338.4009009693986 L 1236 338.0236804107187 L 1237 337.6509776080665 L 1238 337.2828188802478 L 1239 336.91923022518387 L 1240 336.5602373180751 L 1241 336.2058655095886 L 1242 335.85613982406744 L 1243 335.5110849577638 L 1244 335.170725277095 L 1245 334.83508481692286 L 1246 334.5041872788564 L 1247 334.1780560295781 L 1248 333.8567140991939 L 1249 333.5401841796068 L 1250 333.2284886229147 L 1251 332.92164943983164 L 1252 332.6196882981337 L 1253 332.322626521129 L 1254 332.03048508615154 L 1255 331.74328462308046 L 1256 331.4610454128825 L 1257 331.1837873861806 L 1258 330.91153012184594 L 1259 330.6442928456155 L 1260 330.38209442873455 L 1261 330.1249533866239 L 1262 329.87288787757234 L 1263 329.62591570145474 L 1264 329.3840542984745 L 1265 329.1473207479326 L 1266 328.91573176702116 L 1267 328.68930370964296 L 1268 328.4680525652567 L 1269 328.25199395774797 L 1270 328.0411431443256 L 1271 327.83551501444475 L 1272 327.635124088755 L 1273 327.4399845180752 L 1274 327.2501100823943 L 1275 327.06551418989807 L 1276 326.88620987602224 L 1277 326.71220980253213 L 1278 326.54352625662847 L 1279 326.3801711500798 L 1280 326.222156018381 L 1281 326.0694920199393 L 1282 325.92218993528553 L 1283 325.7802601663136 L 1284 325.64371273554553 L 1285 325.51255728542367 L 1286 325.3868030776299 L 1287 325.2664589924319 L 1288 325.15153352805544 L 1289 325.04203480008476 L 1290 324.9379705408893 L 1291 324.8393480990777 L 1292 324.74617443897887 L 1293 324.65845614015007 L 1294 324.57619939691267 L 1295 324.49941001791416 L 1296 324.4280934257185 L 1297 324.36225465642286 L 1298 324.3018983593022 L 1299 324.2470287964807 L 1300 324.19764984263117 L 1301 324.153764984701 L 1302 324.11537732166624 L 1303 324.0824895643127 L 1304 324.05510403504434 L 1305 324.03322266771966 L 1306 324.01684700751457 L 1307 324.0059782108139 L 1308 324.0006170451293 L 1309 324.0007638890451 L 1310 324.00641873219195 L 1311 324.0175811752469 L 1312 324.0342504299622 L 1313 324.0564253192207 L 1314 324.08410427711885 L 1315 324.1172853490776 L 1316 324.1559661919801 L 1317 324.20014407433746 L 1318 324.24981587648136 L 1319 324.3049780907845 L 1320 324.36562682190845 L 1321 324.4317577870782 L 1322 324.5033663163852 L 1323 324.5804473531168 L 1324 324.6629954541134 L 1325 324.7510047901528 L 1326 324.844469146362 L 1327 324.9433819226556 L 1328 325.04773613420264 L 1329 325.1575244119191 L 1330 325.27273900298866 L 1331 325.39337177141016 L 1332 325.519414198572 L 1333 325.65085738385386 L 1334 325.7876920452549 L 1335 325.9299085200497 L 1336 326.07749676547024 L 1337 326.23044635941517 L 1338 326.38874650118584 L 1339 326.5523860122489 L 1340 326.7213533370258 L 1341 326.89563654370875 L 1342 327.0752233251032 L 1343 327.2601009994971 L 1344 327.45025651155646 L 1345 327.6456764332469 L 1346 327.84634696478224 L 1347 328.05225393559897 L 1348 328.2633828053568 L 1349 328.4797186649654 L 1350 328.70124623763746 L 1351 328.9279498799671 L 1352 329.159813583035 L 1353 329.39682097353835 L 1354 329.6389553149477 L 1355 329.88619950868826 L 1356 330.1385360953477 L 1357 330.3959472559088 L 1358 330.65841481300805 L 1359 330.92592023221897 L 1360 331.1984446233611 L 1361 331.4759687418341 L 1362 331.7584729899763 L 1363 332.045937418449 L 1364 332.338341727645 L 1365 332.63566526912234 L 1366 332.93788704706196 L 1367 333.2449857197508 L 1368 333.55693960108863 L 1369 333.87372666211945 L 1370 334.1953245325871 L 1371 334.52171050251513 L 1372 334.8528615238102 L 1373 335.1887542118898 L 1374 335.52936484733357 L 1375 335.87466937755835 L 1376 336.22464341851645 L 1377 336.57926225641785 L 1378 336.9385008494752 L 1379 337.3023338296721 L 1380 337.6707355045546 L 1381 338.0436798590458 L 1382 338.42114055728234 L 1383 338.80309094447455 L 1384 339.1895040487884 L 1385 339.5803525832507 L 1386 339.97560894767525 L 1387 340.3752452306125 L 1388 340.77923321132016 L 1389 341.1875443617561 L 1390 341.60014984859316 L 1391 342.0170205352549 L 1392 342.4381269839732 L 1393 342.8634394578672 L 1394 343.29292792304295 L 1395 343.72656205071456 L 1396 344.16431121934573 L 1397 344.60614451681215 L 1398 345.05203074258424 L 1399 345.501938409931 L 1400 345.95583574814236 L 1401 346.413690704774 L 1402 346.87547094790995 L 1403 347.3411438684459 L 1404 347.8106765823919 L 1405 348.28403593319484 L 1406 348.7611884940793 L 1407 349.2421005704084 L 1408 349.7267382020631 L 1409 350.21506716584025 L 1410 350.70705297786935 L 1411 351.20266089604763 L 1412 351.70185592249345 L 1413 352.2046028060178 L 1414 352.7108660446134 L 1415 353.2206098879617 L 1416 353.73379833995773 L 1417 354.25039516125173 L 1418 354.7703638718083 L 1419 355.2936677534824 L 1420 355.8202698526125 L 1421 356.3501329826299 L 1422 356.88321972668444 L 1423 357.41949244028746 L 1424 357.9589132539694 L 1425 358.50144407595417 L 1426 359.04704659484946 L 1427 359.59568228235145 L 1428 360.1473123959661 L 1429 360.70189798174465 L 1430 361.2593998770347 L 1431 361.8197787132454 L 1432 362.3829949186277 L 1433 362.94900872106854 L 1434 363.51778015089985 L 1435 364.08926904372055 L 1436 364.6634350432331 L 1437 365.24023760409324 L 1438 365.819635994773 L 1439 366.4015893004372 L 1440 366.98605642583266 L 1441 367.57299609819 L 1442 368.1623668701385 L 1443 368.7541271226325 L 1444 369.34823506789087 L 1445 369.94464875234746 L 1446 370.54332605961406 L 1447 371.1442247134541 L 1448 371.7473022807685 L 1449 372.3525161745917 L 1450 372.95982365709926 L 1451 373.5691818426257 L 1452 374.18054770069296 L 1453 374.7938780590491 L 1454 375.4091296067168 L 1455 376.026258897052 L 1456 376.6452223508117 L 1457 377.26597625923176 L 1458 377.888476787113 L 1459 378.5126799759167 L 1460 379.1385417468691 L 1461 379.7660179040739 L 1462 380.3950641376332 L 1463 381.02563602677645 L 1464 381.6576890429973 L 1465 382.29117855319794 L 1466 382.9260598228411 L 1467 383.56228801910913 L 1468 384.19981821406935 L 1469 384.8386053878472 L 1470 385.47860443180537 L 1471 386.11977015172886 L 1472 386.76205727101666 L 1473 387.40542043387893 L 1474 388.0498142085399 L 1475 388.695193090446 L 1476 389.34151150547945 L 1477 389.98872381317597 L 1478 390.6367843099485 L 1479 391.28564723231386 L 1480 391.935266760125 L 1481 392.5855970198062 L 1482 393.23659208759267 L 1483 393.8882059927736 L 1484 394.5403927209382 L 1485 395.1931062172252 L 1486 395.8463003895751 L 1487 396.49992911198484 L 1488 397.15394622776523 L 1489 397.8083055528003 L 1490 398.4629608788084 L 1491 399.11786597660574 L 1492 399.77297459937046 L 1493 400.4282404859086 L 1494 401.0836173639208 L 1495 401.73905895327005 L 1496 402.39451896924953 L 1497 403.04995112585135 L 1498 403.7053091390348 L 1499 404.36054672999495 L 1500 405.0156176284307 L 1501 405.6704755758119 L 1502 406.32507432864645 L 1503 406.97936766174524 L 1504 407.63330937148703 L 1505 408.2868532790805 L 1506 408.93995323382586 L 1507 409.5925631163733 L 1508 410.24463684198014 L 1509 410.89612836376483 L 1510 411.5469916759589 L 1511 412.1971808171556 L 1512 412.84664987355524 L 1513 413.495352982208 L 1514 414.143244334252 L 1515 414.7902781781487 L 1516 415.43640882291317 L 1517 416.08159064134094 L 1518 416.72577807323006 L 1519 417.3689256285979 L 1520 418.01098789089406 L 1521 418.65191952020734 L 1522 419.2916752564673 L 1523 419.9302099226403 L 1524 420.5674784279201 L 1525 421.20343577091165 L 1526 421.83803704280905 L 1527 422.47123743056676 L 1528 423.1029922200642 L 1529 423.73325679926324 L 1530 424.36198666135857 L 1531 424.98913740792057 L 1532 425.6146647520304 L 1533 426.23852452140784 L 1534 426.86067266152986 L 1535 427.4810652387422 L 1536 428.0996584433615 L 1537 428.7164085927689 L 1538 429.331272134495 L 1539 429.9442056492952" stroke-linecap="round" stroke-linejoin="round" stroke-miterlimit="10" stroke-width="3"/></g></svg>